<svg xmlns="http://www.w3.org/2000/svg" width="430" height="920" viewBox="0 0 430 920">
  <rect width="430" height="920" fill="#d9c79e"/>
  <rect x="16" y="16" width="398" height="888" rx="24" fill="#f7f2e6" stroke="#cebfa0"/>
  <text x="36" y="54" font-size="18" fill="#5f685f" font-family="Arial, sans-serif">ホーム</text>
  <text x="36" y="92" font-size="28" font-weight="700" fill="#1f2c22" font-family="Arial, sans-serif">前回当たったセットを、次も使う</text>
  <rect x="28" y="132" width="374" height="134" rx="8" fill="#fffdf7" stroke="#cebfa0"/>
  <text x="44" y="172" font-size="26" font-weight="700" fill="#1f2c22" font-family="Arial, sans-serif">渓流ベイト</text>
  <text x="44" y="206" font-size="20" fill="#1f2c22" font-family="Arial, sans-serif">総釣果数: 18匹</text>
  <text x="44" y="234" font-size="20" fill="#1f2c22" font-family="Arial, sans-serif">最大サイズ: 42cm</text>
  <text x="44" y="262" font-size="20" fill="#1f2c22" font-family="Arial, sans-serif">最終使用日: 2026/06/08</text>
  <rect x="28" y="286" width="374" height="72" rx="8" fill="#284635"/>
  <text x="215" y="331" text-anchor="middle" font-size="22" fill="#fffef9" font-family="Arial, sans-serif">釣果を追加</text>
  <rect x="28" y="372" width="374" height="72" rx="8" fill="#efe4c8" stroke="#cebfa0"/>
  <text x="215" y="417" text-anchor="middle" font-size="22" fill="#1f2c22" font-family="Arial, sans-serif">実績を見る</text>
  <rect x="28" y="458" width="374" height="72" rx="8" fill="#ffffff" stroke="#cebfa0"/>
  <text x="215" y="503" text-anchor="middle" font-size="22" fill="#284635" font-family="Arial, sans-serif">セットを変更</text>
  <rect x="28" y="550" width="374" height="232" rx="8" fill="#fffdf7" stroke="#cebfa0"/>
  <text x="44" y="588" font-size="22" font-weight="700" fill="#1f2c22" font-family="Arial, sans-serif">最近の釣果</text>
  <rect x="44" y="610" width="342" height="66" rx="8" fill="#ffffff" stroke="#cebfa0"/>
  <text x="58" y="648" font-size="20" fill="#1f2c22" font-family="Arial, sans-serif">ニジマス 32cm</text>
  <text x="58" y="669" font-size="18" fill="#5f685f" font-family="Arial, sans-serif">紫電 4g / 2026/06/08</text>
  <rect x="44" y="690" width="342" height="66" rx="8" fill="#ffffff" stroke="#cebfa0"/>
  <text x="58" y="728" font-size="20" fill="#1f2c22" font-family="Arial, sans-serif">ヤマメ 24cm</text>
  <text x="58" y="749" font-size="18" fill="#5f685f" font-family="Arial, sans-serif">紫電 4g / 2026/06/01</text>
  <rect x="16" y="820" width="398" height="84" rx="0" fill="#f4ecd8"/>
  <text x="65" y="868" font-size="18" fill="#1f2c22" font-family="Arial, sans-serif">ホーム</text>
  <text x="160" y="868" font-size="18" fill="#1f2c22" font-family="Arial, sans-serif">セット</text>
  <rect x="196" y="834" width="72" height="56" rx="8" fill="#efe4c8" stroke="#cebfa0"/>
  <text x="232" y="868" text-anchor="middle" font-size="18" font-weight="700" fill="#1f2c22" font-family="Arial, sans-serif">追加</text>
  <text x="332" y="868" font-size="18" fill="#1f2c22" font-family="Arial, sans-serif">実績</text>
</svg>
