<svg xmlns="http://www.w3.org/2000/svg" width="430" height="920" viewBox="0 0 430 920">
  <rect width="430" height="920" fill="#d9c79e"/>
  <rect x="16" y="16" width="398" height="888" rx="24" fill="#f7f2e6" stroke="#cebfa0"/>
  <text x="36" y="54" font-size="18" fill="#5f685f" font-family="Arial, sans-serif">今日のセット</text>
  <text x="36" y="92" font-size="28" font-weight="700" fill="#1f2c22" font-family="Arial, sans-serif">最速でセットを選ぶ</text>
  <rect x="28" y="132" width="374" height="214" rx="8" fill="#fffdf7" stroke="#cebfa0"/>
  <rect x="44" y="148" width="84" height="84" rx="8" fill="#284635"/>
  <text x="86" y="197" text-anchor="middle" font-size="28" fill="#fffef9" font-family="Arial, sans-serif">渓</text>
  <text x="144" y="178" font-size="24" font-weight="700" fill="#1f2c22" font-family="Arial, sans-serif">渓流ベイト</text>
  <text x="144" y="208" font-size="18" fill="#5f685f" font-family="Arial, sans-serif">カワセミ 48UL / ABU 2500C / 紫電 4g</text>
  <text x="44" y="256" font-size="20" fill="#1f2c22" font-family="Arial, sans-serif">釣果数 18匹</text>
  <text x="44" y="284" font-size="20" fill="#1f2c22" font-family="Arial, sans-serif">最大サイズ 42cm</text>
  <text x="44" y="312" font-size="20" fill="#1f2c22" font-family="Arial, sans-serif">最終使用日 2026/06/08</text>
  <rect x="44" y="330" width="342" height="64" rx="8" fill="#284635"/>
  <text x="215" y="370" text-anchor="middle" font-size="22" fill="#fffef9" font-family="Arial, sans-serif">このセットを使う</text>
  <rect x="28" y="364" width="374" height="214" rx="8" fill="#fffdf7" stroke="#cebfa0"/>
  <rect x="44" y="380" width="84" height="84" rx="8" fill="#60805f"/>
  <text x="86" y="429" text-anchor="middle" font-size="28" fill="#fffef9" font-family="Arial, sans-serif">フ</text>
  <text x="144" y="410" font-size="24" font-weight="700" fill="#1f2c22" font-family="Arial, sans-serif">フライ #3</text>
  <text x="144" y="440" font-size="18" fill="#5f685f" font-family="Arial, sans-serif">Sage #3 / DT3F / エルクヘアカディス</text>
  <text x="44" y="488" font-size="20" fill="#1f2c22" font-family="Arial, sans-serif">釣果数 11匹</text>
  <text x="44" y="516" font-size="20" fill="#1f2c22" font-family="Arial, sans-serif">最大サイズ 31cm</text>
  <text x="44" y="544" font-size="20" fill="#1f2c22" font-family="Arial, sans-serif">最終使用日 2026/05/30</text>
  <rect x="44" y="562" width="342" height="64" rx="8" fill="#284635"/>
  <text x="215" y="602" text-anchor="middle" font-size="22" fill="#fffef9" font-family="Arial, sans-serif">このセットを使う</text>
</svg>
